Coordinates
version=1
nRows=4
nColumns=114
inDegrees=yes

Units are S.I. units (second, meters, Newtons, ...)
If the header above contains a line with 'inDegrees', this indicates whether rotational values are in degrees (yes) or radians (no).

endheader 
time	pelvis_tilt	pelvis_list	pelvis_rotation	pelvis_tx	pelvis_ty	pelvis_tz	hip_flexion_l	hip_adduction_l	hip_rotation_l	hip_flexion_r	hip_adduction_r	hip_rotation_r	knee_angle_l	knee_angle_r	ankle_angle_l	ankle_angle_r	subtalar_angle_l	subtalar_angle_r	mtp_angle_l	mtp_angle_r	lumbar_extension	lumbar_bending	lumbar_rotation	arm_flex_l	arm_add_l	arm_rot_l	arm_flex_r	arm_add_r	arm_rot_r	elbow_flex_l	elbow_flex_r	pro_sup_l	pro_sup_r	addbrev_l/activation	addlong_l/activation	addmagDist_l/activation	addmagIsch_l/activation	addmagMid_l/activation	addmagProx_l/activation	bflh_l/activation	bfsh_l/activation	edl_l/activation	ehl_l/activation	fdl_l/activation	fhl_l/activation	gaslat_l/activation	gasmed_l/activation	glmax1_l/activation	glmax2_l/activation	glmax3_l/activation	glmed1_l/activation	glmed2_l/activation	glmed3_l/activation	glmin1_l/activation	glmin2_l/activation	glmin3_l/activation	grac_l/activation	iliacus_l/activation	perbrev_l/activation	perlong_l/activation	piri_l/activation	psoas_l/activation	recfem_l/activation	sart_l/activation	semimem_l/activation	semiten_l/activation	soleus_l/activation	tfl_l/activation	tibant_l/activation	tibpost_l/activation	vasint_l/activation	vaslat_l/activation	vasmed_l/activation	addbrev_r/activation	addlong_r/activation	addmagDist_r/activation	addmagIsch_r/activation	addmagMid_r/activation	addmagProx_r/activation	bflh_r/activation	bfsh_r/activation	edl_r/activation	ehl_r/activation	fdl_r/activation	fhl_r/activation	gaslat_r/activation	gasmed_r/activation	glmax1_r/activation	glmax2_r/activation	glmax3_r/activation	glmed1_r/activation	glmed2_r/activation	glmed3_r/activation	glmin1_r/activation	glmin2_r/activation	glmin3_r/activation	grac_r/activation	iliacus_r/activation	perbrev_r/activation	perlong_r/activation	piri_r/activation	psoas_r/activation	recfem_r/activation	sart_r/activation	semimem_r/activation	semiten_r/activation	soleus_r/activation	tfl_r/activation	tibant_r/activation	tibpost_r/activation	vasint_r/activation	vaslat_r/activation	vasmed_r/activation	
          2.70000000	         -6.84032624	          3.29627908	        -34.42277955	          1.25709568	          0.91900162	          0.39752680	         15.66659521	         -9.86719386	         -5.04841410	         15.95850227	         -4.92997576	         -9.02235858	         30.01027251	         32.27100998	         16.93840168	         16.27328829	         -7.78006189	        -13.43371221	        -10.37565907	        -15.73952870	        -12.88532104	         -1.85838630	          0.58318905	          2.57202012	        -14.02418532	          2.07845520	         -1.87108663	        -12.09024654	          5.85182838	         26.50544420	         22.72405163	         74.46445911	         71.17498322	          0.06986256	          0.13239319	          0.02096031	          0.01440838	          0.02805739	          0.10118446	          0.03219222	          0.03978643	          0.01296191	          0.01805403	          0.01975102	          0.02610319	          0.06927073	          0.09891491	          0.01472957	          0.03058190	          0.06290377	          0.01004284	          0.01012308	          0.01062723	          0.01011101	          0.01028634	          0.01207694	          0.06568753	          0.02125458	          0.01098935	          0.01394094	          0.10773885	          0.13679234	          0.10057493	          0.08057277	          0.02273477	          0.01077873	          0.10290782	          0.01090631	          0.07615655	          0.04924053	          0.02207695	          0.05190527	          0.02775503	          0.01006939	          0.01013773	          0.01205930	          0.01861335	          0.01008654	          0.01015216	          0.15270285	          0.27255083	          0.13170381	          0.07670298	          0.01029527	          0.01478078	          0.08662095	          0.12670504	          0.02593389	          0.04004683	          0.02734622	          0.02103686	          0.02057167	          0.04864733	          0.02030418	          0.06971669	          0.08060000	          0.09562760	          0.29144402	          0.08082607	          0.05582922	          0.12006268	          0.18134920	          0.20585883	          0.31742905	          0.15008165	          0.08462911	          0.11847952	          0.06048263	          0.20470917	          0.01260663	          0.02495706	          0.11594091	          0.03526834	
          2.71000000	         -6.73098656	          3.18473673	        -34.43638475	          1.26017780	          0.92204234	          0.39895746	         14.65336056	         -9.78629108	         -5.29135954	         14.88059361	         -4.77717914	         -9.07131433	         28.75753834	         31.06352160	         16.55336523	         16.21671818	         -7.61740182	        -13.40603307	        -10.10972870	        -14.94356602	        -12.29390323	         -1.85495422	          0.60970551	          2.27692530	        -14.10184046	          1.90588957	         -2.08935689	        -12.03097791	          5.76171494	         26.36076601	         22.19641667	         74.70618439	         71.45774182	          0.05849758	          0.11038903	          0.02050998	          0.01214542	          0.04521804	          0.08442639	          0.04165494	          0.03344277	          0.01147280	          0.01591287	          0.01809060	          0.02435067	          0.07221215	          0.10252662	          0.01237751	          0.02553388	          0.05271730	          0.01004367	          0.01010514	          0.01023282	          0.01011841	          0.01020148	          0.01059294	          0.05530532	          0.01779143	          0.01048269	          0.01169425	          0.08982316	          0.11402459	          0.08382056	          0.06720723	          0.01905315	          0.01073071	          0.08578709	          0.01016599	          0.06357402	          0.04236884	          0.01842091	          0.04326251	          0.02314479	          0.01811433	          0.11471558	          0.01007830	          0.01552101	          0.01014829	          0.04098390	          0.12726476	          0.22713466	          0.10976733	          0.06393034	          0.02672857	          0.03787881	          0.08735707	          0.17290908	          0.02162465	          0.03337823	          0.02279437	          0.01754036	          0.01716510	          0.04056761	          0.01695141	          0.05813332	          0.06720803	          0.07971319	          0.24291215	          0.06738399	          0.05280481	          0.10586992	          0.25449311	          0.17159859	          0.26454232	          0.12507861	          0.07052964	          0.23538722	          0.05057906	          0.17059626	          0.03950296	          0.02081714	          0.17980565	          0.02940665	
          2.72000000	         -6.75967458	          3.17414692	        -34.45029735	          1.26289391	          0.92437771	          0.40011516	         13.98684559	         -9.71394558	         -5.49728220	         14.17039355	         -4.64398194	         -9.02669552	         27.77612217	         29.92940923	         16.28080309	         15.88159157	         -7.48785739	        -13.42858989	         -9.79739807	        -14.40416711	        -11.58192011	         -1.85470870	          0.66942055	          2.02128567	        -14.18454883	          1.89422058	         -2.32429379	        -12.01119990	          5.75078379	         26.30480248	         21.79182203	         74.68909018	         71.42121547	          0.04879723	          0.09201023	          0.01747254	          0.01345636	          0.03778005	          0.07039934	          0.07905822	          0.02893184	          0.01248278	          0.01555077	          0.01613240	          0.02083383	          0.07203422	          0.10182746	          0.01129381	          0.02144452	          0.04404931	          0.01274299	          0.01214729	          0.01129846	          0.01271802	          0.01254749	          0.01239588	          0.04623987	          0.01489157	          0.01027747	          0.01011952	          0.07491621	          0.09504615	          0.06985949	          0.05607288	          0.07404572	          0.02706920	          0.08217699	          0.01151269	          0.05313860	          0.03541241	          0.01537444	          0.03605880	          0.01930287	          0.01513246	          0.09560704	          0.01066999	          0.01423353	          0.01024449	          0.03420112	          0.12752867	          0.18929074	          0.09330644	          0.05349268	          0.02233774	          0.03160748	          0.07597712	          0.16405064	          0.01809769	          0.02784199	          0.01901612	          0.01469826	          0.01522736	          0.03406385	          0.01426386	          0.04851620	          0.05608550	          0.06645123	          0.20243750	          0.08558994	          0.06671416	          0.08824861	          0.21208781	          0.16988343	          0.22046345	          0.12483210	          0.05879439	          0.19666726	          0.04216189	          0.15295961	          0.03294230	          0.01754522	          0.14984649	          0.02461189	
          2.73000000	         -6.84507033	          3.21316087	        -34.47559298	          1.26536582	          0.92623729	          0.40113121	         13.49116997	         -9.64903854	         -5.73620761	         13.60930231	         -4.52371871	         -8.93285331	         26.97281684	         28.88682236	         16.07243662	         15.42932474	         -7.38154327	        -13.50483002	         -9.50425761	        -14.09388876	        -10.84556776	         -1.87250048	          0.74209343	          1.75985189	        -14.27134502	          1.79452128	         -2.54694362	        -11.99515786	          5.71551706	         26.33288510	         21.34875017	         74.77517230	         71.54706044	          0.04071955	          0.07669878	          0.01513981	          0.01431263	          0.03162740	          0.05872986	          0.06592212	          0.02434774	          0.01161789	          0.01336876	          0.01367702	          0.01754176	          0.06393174	          0.08734407	          0.01863736	          0.01899248	          0.04642255	          0.01206152	          0.01345550	          0.01894231	          0.01202835	          0.01231758	          0.01631347	          0.03871903	          0.01246235	          0.01418979	          0.01485340	          0.06692114	          0.07923778	          0.10234292	          0.04680821	          0.06171573	          0.02263239	          0.09105538	          0.01036150	          0.04432411	          0.02955791	          0.01288312	          0.03007013	          0.01612707	          0.02136609	          0.09283199	          0.01228719	          0.01210557	          0.01460665	          0.02867168	          0.10627959	          0.15775603	          0.07776669	          0.04459795	          0.02093754	          0.02917295	          0.08609198	          0.17761590	          0.01510558	          0.02321289	          0.01586025	          0.01228292	          0.01273142	          0.02841590	          0.01201050	          0.04048951	          0.04678379	          0.05540961	          0.16872908	          0.07135922	          0.05566804	          0.07432338	          0.17677131	          0.22037287	          0.18373582	          0.10403106	          0.04900621	          0.27575488	          0.04620781	          0.12747003	          0.03004683	          0.01472024	          0.13888900	          0.02057587	
